<?xml version="1.0" encoding="utf-8"?>
<!-- Generator: Adobe Illustrator 16.0.0, SVG Export Plug-In . SVG Version: 6.00 Build 0)  -->
<!DOCTYPE svg PUBLIC "-//W3C//DTD SVG 1.1//EN" "http://www.w3.org/Graphics/SVG/1.1/DTD/svg11.dtd">
<svg version="1.1" id="Layer_1" xmlns="http://www.w3.org/2000/svg" xmlns:xlink="http://www.w3.org/1999/xlink" x="0px" y="0px"
	 width="36.75px" height="36.5px" viewBox="14.125 7.75 36.75 36.5" enable-background="new 14.125 7.75 36.75 36.5"
	 xml:space="preserve">
<ellipse fill="#78909C" cx="21.908" cy="19.662" rx="0.975" ry="1.462"/>
<ellipse fill="#78909C" cx="31.658" cy="19.662" rx="0.975" ry="1.462"/>
<circle fill="#78909C" cx="26.783" cy="24.05" r="1.95"/>
<path fill="#78909C" d="M26.783,9.912c-5.645,0-10.238,4.592-10.238,10.238c0,5.646,4.593,10.238,10.238,10.238
	s10.238-4.592,10.238-10.238C37.021,14.504,32.428,9.912,26.783,9.912z M26.783,29.412c-5.107,0-9.262-4.155-9.262-9.262
	s4.155-9.262,9.262-9.262c5.107,0,9.262,4.155,9.262,9.262S31.891,29.412,26.783,29.412z"/>
<path fill="#78909C" d="M40.852,30.081c-0.61-0.61-1.47-0.871-2.305-0.807l-1.939-1.94c1.479-2.018,2.363-4.496,2.363-7.184
	c0-6.72-5.467-12.188-12.188-12.188c-6.72,0-12.188,5.467-12.188,12.188c0,6.721,5.468,12.188,12.188,12.188
	c2.688,0,5.167-0.886,7.184-2.365l1.918,1.917c-0.008,0.086-0.026,0.171-0.026,0.26c0,0.781,0.304,1.515,0.855,2.068l8.963,8.961
	c0.552,0.553,1.286,0.857,2.068,0.857s1.517-0.305,2.069-0.857c0.553-0.552,0.856-1.287,0.856-2.067
	c0-0.782-0.305-1.517-0.856-2.069L40.852,30.081z M15.57,20.15c0-6.182,5.031-11.212,11.212-11.212
	c6.183,0,11.211,5.031,11.211,11.212s-5.029,11.212-11.211,11.212C20.601,31.362,15.57,26.332,15.57,20.15z M34.736,29.364
	c0.451-0.389,0.871-0.81,1.262-1.26l1.464,1.464c-0.271,0.132-0.528,0.294-0.747,0.514c-0.219,0.218-0.386,0.471-0.523,0.738
	L34.736,29.364z M49.125,42.491c-0.737,0.737-2.021,0.737-2.759,0l-8.962-8.962c-0.368-0.369-0.571-0.858-0.571-1.379
	c0-0.521,0.203-1.01,0.571-1.378c0.369-0.369,0.858-0.571,1.379-0.571c0.521,0,1.01,0.203,1.379,0.57l8.963,8.962
	C49.886,40.494,49.886,41.73,49.125,42.491z"/>
<path fill="#78909C" d="M28.918,12.14c-0.692-0.184-1.411-0.277-2.135-0.277c-0.27,0-0.488,0.218-0.488,0.488
	s0.218,0.488,0.488,0.488c0.64,0,1.274,0.082,1.883,0.245c0.042,0.011,0.085,0.016,0.126,0.016c0.216,0,0.413-0.143,0.471-0.362
	C29.332,12.476,29.178,12.209,28.918,12.14z"/>
<path fill="#78909C" d="M34.037,16.138c-0.729-1.315-1.803-2.41-3.104-3.165c-0.231-0.135-0.531-0.058-0.667,0.177
	c-0.135,0.233-0.055,0.531,0.177,0.667c1.149,0.666,2.098,1.632,2.741,2.793c0.089,0.161,0.255,0.251,0.427,0.251
	c0.08,0,0.162-0.02,0.235-0.061C34.084,16.67,34.168,16.373,34.037,16.138z"/>
</svg>
