<?xml version="1.0" encoding="utf-8"?>
<!-- Generator: Adobe Illustrator 16.0.0, SVG Export Plug-In . SVG Version: 6.00 Build 0)  -->
<!DOCTYPE svg PUBLIC "-//W3C//DTD SVG 1.1//EN" "http://www.w3.org/Graphics/SVG/1.1/DTD/svg11.dtd">
<svg version="1.1" id="Layer_1" xmlns="http://www.w3.org/2000/svg" xmlns:xlink="http://www.w3.org/1999/xlink" x="0px" y="0px"
	 width="37.125px" height="37.125px" viewBox="13.75 7.5 37.125 37.125" enable-background="new 13.75 7.5 37.125 37.125"
	 xml:space="preserve">
<path fill="#78909C" d="M30.55,23.562h-7.8c-0.27,0-0.488,0.218-0.488,0.488c0,0.27,0.218,0.488,0.488,0.488h4.388V26
	c0,1.075,0.874,1.95,1.95,1.95c1.076,0,1.95-0.875,1.95-1.95v-1.95C31.038,23.78,30.82,23.562,30.55,23.562z M29.088,26.975
	c-0.537,0-0.975-0.438-0.975-0.975v-1.462h1.95V26C30.062,26.538,29.625,26.975,29.088,26.975z"/>
<path fill="#78909C" d="M22.405,21.47c0.096,0.095,0.22,0.143,0.345,0.143s0.249-0.048,0.345-0.143c0.19-0.19,0.19-0.499,0-0.689
	l-0.63-0.63l0.63-0.63c0.19-0.19,0.19-0.499,0-0.689c-0.19-0.19-0.499-0.19-0.689,0l-0.63,0.63l-0.63-0.63
	c-0.19-0.19-0.499-0.19-0.689,0c-0.19,0.19-0.19,0.5,0,0.689l0.63,0.63l-0.63,0.63c-0.19,0.19-0.19,0.499,0,0.689
	c0.096,0.095,0.22,0.143,0.345,0.143c0.125,0,0.249-0.048,0.345-0.143l0.63-0.63L22.405,21.47z"/>
<path fill="#78909C" d="M32.845,18.83c-0.19-0.19-0.499-0.19-0.689,0l-0.63,0.63l-0.63-0.63c-0.19-0.19-0.499-0.19-0.689,0
	c-0.19,0.19-0.19,0.5,0,0.689l0.63,0.63l-0.63,0.63c-0.19,0.19-0.19,0.499,0,0.689c0.096,0.095,0.22,0.143,0.345,0.143
	c0.125,0,0.249-0.048,0.345-0.143l0.63-0.63l0.63,0.63c0.096,0.095,0.22,0.143,0.345,0.143s0.249-0.048,0.345-0.143
	c0.19-0.19,0.19-0.499,0-0.689l-0.63-0.63l0.63-0.63C33.035,19.33,33.035,19.021,32.845,18.83z"/>
<path fill="#78909C" d="M26.65,9.912c-5.645,0-10.238,4.592-10.238,10.238c0,5.646,4.592,10.238,10.238,10.238
	s10.238-4.592,10.238-10.238C36.888,14.504,32.295,9.912,26.65,9.912z M26.65,29.412c-5.107,0-9.262-4.155-9.262-9.262
	s4.155-9.262,9.262-9.262s9.262,4.155,9.262,9.262S31.757,29.412,26.65,29.412z"/>
<path fill="#78909C" d="M40.719,30.081c-0.611-0.61-1.471-0.871-2.305-0.807l-1.941-1.94c1.479-2.018,2.365-4.496,2.365-7.184
	c0-6.72-5.467-12.188-12.188-12.188c-6.72,0-12.188,5.467-12.188,12.187c0,6.721,5.467,12.188,12.188,12.188
	c2.688,0,5.167-0.886,7.184-2.365l1.916,1.917c-0.008,0.086-0.025,0.171-0.025,0.26c0,0.781,0.305,1.516,0.856,2.068l8.962,8.962
	c0.553,0.552,1.287,0.856,2.068,0.856c0.782,0,1.516-0.305,2.069-0.856c0.552-0.552,0.856-1.287,0.856-2.067
	c0-0.782-0.305-1.518-0.856-2.07L40.719,30.081z M15.438,20.15c0-6.182,5.031-11.212,11.212-11.212s11.212,5.031,11.212,11.212
	s-5.03,11.212-11.212,11.212S15.438,26.332,15.438,20.15z M34.604,29.364c0.45-0.389,0.871-0.81,1.26-1.26l1.465,1.464
	c-0.271,0.132-0.527,0.294-0.746,0.514c-0.219,0.218-0.386,0.471-0.523,0.738L34.604,29.364z M48.991,42.491
	c-0.737,0.737-2.021,0.737-2.759,0l-8.962-8.962c-0.368-0.369-0.57-0.858-0.57-1.379c0-0.521,0.202-1.01,0.571-1.378
	c0.368-0.369,0.857-0.571,1.379-0.571c0.52,0,1.01,0.203,1.378,0.57l8.962,8.962C49.752,40.494,49.752,41.73,48.991,42.491z"/>
<path fill="#78909C" d="M26.65,12.838c0.64,0,1.274,0.082,1.883,0.245c0.042,0.011,0.085,0.016,0.125,0.016
	c0.216,0,0.414-0.144,0.471-0.362c0.069-0.26-0.085-0.528-0.345-0.596c-0.692-0.184-1.41-0.277-2.135-0.277
	c-0.27,0-0.488,0.218-0.488,0.488S26.38,12.838,26.65,12.838z"/>
<path fill="#78909C" d="M33.904,16.138c-0.73-1.315-1.804-2.41-3.105-3.165c-0.23-0.135-0.531-0.058-0.666,0.177
	c-0.136,0.233-0.055,0.531,0.177,0.667c1.149,0.666,2.097,1.632,2.741,2.793c0.09,0.161,0.256,0.251,0.427,0.251
	c0.079,0,0.161-0.02,0.236-0.061C33.95,16.67,34.035,16.373,33.904,16.138z"/>
</svg>
