<?xml version="1.0" encoding="utf-8"?>
<!-- Generator: Adobe Illustrator 16.0.0, SVG Export Plug-In . SVG Version: 6.00 Build 0)  -->
<!DOCTYPE svg PUBLIC "-//W3C//DTD SVG 1.1//EN" "http://www.w3.org/Graphics/SVG/1.1/DTD/svg11.dtd">
<svg version="1.1" id="Layer_1" xmlns="http://www.w3.org/2000/svg" xmlns:xlink="http://www.w3.org/1999/xlink" x="0px" y="0px"
	 width="319.5px" height="322px" viewBox="0 0 319.5 322" enable-background="new 0 0 319.5 322" xml:space="preserve">
<path fill-rule="evenodd" clip-rule="evenodd" fill="#CACACA" d="M109.322,4.354c52.998-0.298,98.265,39.433,105.133,92.293
	c3.354,25.817-2.077,49.685-16.381,71.404c-2.335,3.547-2.287,5.765,0.977,8.336c2.08,1.638,3.883,3.652,5.677,5.621
	c3.646,4,7.356,7.151,13.453,7.273c5.607,0.112,10.304,3.476,14.303,7.478c25.439,25.451,50.952,50.83,76.302,76.371
	c10.565,10.645,10.531,26.52,0.314,36.797c-10.409,10.47-26.285,10.484-37.143-0.305c-25.646-25.48-51.164-51.089-76.708-76.671
	c-4.771-4.779-7.605-10.51-7.655-17.366c-0.016-2.34-0.768-4.117-2.449-5.729c-3.607-3.458-7.225-6.925-10.573-10.627
	c-2.269-2.508-4.051-2.336-6.793-0.586c-58.734,37.492-133.824,13.256-157.865-51.836C-14.123,81.73,29.083,15.524,92.904,5.579
	C98.373,4.728,103.854,4.805,109.322,4.354z M214.055,198.177c-7.957,0.021-12.906,3.428-15.561,9.551
	c-2.924,6.747-1.539,13.196,3.645,18.405c25.49,25.614,51.021,51.189,76.67,76.646c6.803,6.754,17.082,6.686,23.392,0.378
	c6.353-6.35,6.407-16.473-0.402-23.331c-25.46-25.645-51.056-51.155-76.64-76.676C221.855,199.855,217.842,197.968,214.055,198.177z
	 M109.682,14.192c-53.553-0.091-96.417,42.509-96.49,95.893c-0.073,53.23,42.629,96.478,95.398,96.616
	c53.708,0.142,97.05-42.71,97.111-96.013C205.764,57.31,162.947,14.281,109.682,14.192z M200.07,191.431
	c-0.512-0.688-0.842-1.264-1.293-1.719c-2.564-2.595-5.168-5.152-7.739-7.74c-1.167-1.174-2.257-1.163-3.418,0.019
	c-2.209,2.248-4.45,4.464-6.681,6.69c-0.949,0.947-1.296,1.997-0.238,3.033c3.068,3.006,5.765,6.871,9.451,8.577
	c2.012,0.931,3.741-3.96,6.198-5.591c0.827-0.549,1.61-1.17,2.366-1.814C199.186,192.485,199.566,191.98,200.07,191.431z"/>
<path fill-rule="evenodd" clip-rule="evenodd" fill="#CACACA" d="M198.377,110.593c-0.027,49.624-39.56,88.478-89.49,88.894
	c-42.801,0.357-88.517-34.02-88.725-88.866c-0.189-49.909,38.826-89.434,89.166-89.458
	C164.096,21.135,199.594,66.938,198.377,110.593z M30.118,110.277c-0.023,44.159,35.131,79.45,79.164,79.472
	c44.079,0.021,79.443-35.25,79.467-79.257c0.024-44.106-35.153-79.333-79.261-79.374C65.199,31.076,30.142,66.041,30.118,110.277z"
	/>
<path fill-rule="evenodd" clip-rule="evenodd" fill="#CACACA" d="M109.382,139.01c9.989,0.004,19.978-0.064,29.966,0.026
	c7.117,0.065,8.763,1.783,8.803,8.978c0.027,4.823,0.278,9.697-0.292,14.462c-1.147,9.573-8.365,15.891-17.45,15.867
	c-9.213-0.024-16.092-6.263-17.373-15.967c-0.346-2.624-0.373-5.329-0.199-7.974c0.253-3.849-1.21-5.368-5.164-5.284
	c-9.152,0.194-18.312,0.071-27.468,0.043c-1.659-0.006-3.356,0.015-4.968-0.312c-2.524-0.512-4.265-2.091-4.227-4.807
	c0.035-2.462,1.603-4.02,3.963-4.473c1.945-0.372,3.958-0.528,5.942-0.54C90.403,138.977,99.893,139.006,109.382,139.01z
	 M138.061,157.241c-0.891-2.479,1.861-6.763-2.713-7.769c-3.334-0.733-6.956-0.208-10.448-0.152
	c-1.306,0.021-2.271,0.808-2.335,2.15c-0.206,4.315-0.776,8.733,1.105,12.806c1.461,3.164,4.218,4.783,7.739,4.267
	c3.669-0.538,6.022-2.699,6.429-6.557C137.993,160.499,137.983,158.995,138.061,157.241z"/>
<path fill-rule="evenodd" clip-rule="evenodd" fill="#CACACA" d="M80.237,102.128c-0.067,2.197-1.372,3.764-2.904,5.039
	c-2.619,2.18-2.969,4.197-0.094,6.389c0.522,0.398,0.952,0.932,1.376,1.442c1.956,2.35,2.461,4.851,0.023,7.077
	c-2.204,2.014-4.928,1.781-6.67-0.388c-3.339-4.155-6.021-3.898-9.373,0.011c-1.918,2.238-4.81,2.458-7.123,0.241
	c-2.443-2.343-1.822-5.167,0.397-7.024c4.153-3.476,3.709-6.237-0.199-9.499c-2.193-1.83-2.327-4.41-0.235-6.617
	c2.099-2.213,4.855-2.244,6.618-0.107c3.799,4.604,6.863,3.798,10.376-0.23c1.393-1.597,3.586-1.661,5.533-0.498
	C79.517,98.89,80.257,100.313,80.237,102.128z"/>
<path fill-rule="evenodd" clip-rule="evenodd" fill="#CACACA" d="M159.762,123.301c-2.42-0.049-3.979-1.634-5.373-3.259
	c-1.958-2.282-3.693-2.495-5.628-0.043c-0.609,0.771-1.388,1.44-2.183,2.03c-2.256,1.674-4.716,2.036-6.752-0.098
	c-2.028-2.125-1.901-4.927,0.268-6.66c4.301-3.438,4.203-6.194,0.053-9.717c-2.239-1.9-2.31-4.866,0.063-7.049
	c2.211-2.034,4.803-1.688,6.608,0.514c3.113,3.793,5.792,4.721,9.21,0.262c1.783-2.325,4.631-2.924,7.021-0.673
	c2.596,2.443,2.039,5.398-0.43,7.384c-3.99,3.209-4,5.805,0.053,8.869c1.828,1.384,2.491,3.553,1.506,5.835
	C163.363,122.578,161.77,123.342,159.762,123.301z"/>
<path fill-rule="evenodd" clip-rule="evenodd" fill="#CACACA" d="M173.138,77.272c0.007,1.925-0.767,3.339-2.28,4.277
	c-1.531,0.95-3.25,1.077-4.692,0.017c-1.167-0.858-2.229-2.013-2.986-3.251c-5.287-8.647-12.157-15.716-20.725-21.125
	c-2.938-1.855-5.191-4.232-3.003-7.722c2.233-3.562,5.312-2.328,8.23-0.508c9.905,6.18,17.773,14.334,23.749,24.339
	c0.51,0.852,0.968,1.739,1.379,2.643C173.01,76.384,173.05,76.899,173.138,77.272z"/>
<path fill-rule="evenodd" clip-rule="evenodd" fill="#CACACA" d="M125.654,49.823c-5.123-1.585-10.826-1.379-16.389-2.232
	c-2.791-0.429-4.654-1.964-4.451-4.995c0.202-3.002,2.356-4.533,5.035-4.527c6.135,0.015,12.247,0.63,18.123,2.59
	c2.578,0.86,3.724,2.8,3.18,5.433C130.599,48.769,128.614,49.795,125.654,49.823z"/>
</svg>
