<?xml version="1.0" encoding="utf-8"?>
<!-- Generator: Adobe Illustrator 16.0.0, SVG Export Plug-In . SVG Version: 6.00 Build 0)  -->
<!DOCTYPE svg PUBLIC "-//W3C//DTD SVG 1.1//EN" "http://www.w3.org/Graphics/SVG/1.1/DTD/svg11.dtd">
<svg version="1.1" id="Layer_1" xmlns="http://www.w3.org/2000/svg" xmlns:xlink="http://www.w3.org/1999/xlink" x="0px" y="0px"
	 width="133.167px" height="149.985px" viewBox="0 0 133.167 149.985" enable-background="new 0 0 133.167 149.985"
	 xml:space="preserve">
<path fill="none" d="M53.382,19.147L22.818,34.33c-7.064,3.511-8.044,5.109-8.063,13.156L14.683,75.64l0.072,28.136
	c0.02,8.046,1,9.645,8.063,13.156l30.609,15.206c4.887,2.337,8.266,3.758,13.853,3.758c5.027-0.011,8.197-1.606,12.208-3.629
	l30.736-15.204c7.66-3.761,8.377-5.905,8.356-14.257l-0.07-28.66l0.07-25.693c0.021-8.35-0.696-10.496-8.348-14.253L79.495,18.996
	c-4.018-2.023-7.188-3.621-12.216-3.633l-0.084-1.08v1.08C61.686,15.363,58.301,16.792,53.382,19.147z"/>
<path fill="#662D91" d="M84.229,144.477l32.618-16.235c10.503-5.205,14.776-11.976,14.746-23.359l-0.075-29.242l0.075-29.26
	c0.03-11.386-4.243-18.154-14.741-23.356L84.242,6.792c-6.146-3.095-11.207-4.421-16.931-4.437c-6.859,0-11.027,1.055-17.994,4.514
	L16.8,22.937C5.717,28.362,1.779,34.639,1.748,46.927L1.674,74.498l0.001,1.125l-0.003,1.141l0.076,27.569
	c0.031,12.289,3.968,18.563,15.041,23.984l32.523,16.07c6.971,3.463,11.141,4.518,17.845,4.518l0.157,1.08l-0.003-1.08
	C73.035,148.889,78.092,147.566,84.229,144.477z M52.48,134.079l-30.624-15.215c-7.769-3.859-9.24-6.255-9.262-15.084l-0.072-28.14
	l0.072-28.161c0.022-8.826,1.493-11.223,9.262-15.084l30.579-15.19c5.209-2.493,8.794-4.002,14.759-4.002h0.086
	c5.543,0.014,8.914,1.711,13.18,3.862l0.424,0.213l30.303,14.984c8.39,4.12,9.579,7.155,9.554,16.197l-0.069,25.689l0.002,1.474
	l-0.004,1.445l0.071,25.734c0.025,9.042-1.164,12.076-9.562,16.199l-30.72,15.196c-4.265,2.148-7.635,3.847-13.176,3.859
	C61.237,138.057,57.657,136.555,52.48,134.079z"/>
<path fill="#EC008C" d="M111.178,119.001c8.398-4.123,9.588-7.157,9.562-16.199l-0.071-25.734l0.004-1.445l-0.002-1.474
	l0.069-25.689c0.025-9.042-1.164-12.077-9.554-16.197L80.884,17.278l-0.424-0.213c-4.267-2.15-7.637-3.848-13.18-3.862h-0.086
	c-5.964,0-9.55,1.509-14.759,4.002l-30.579,15.19c-7.769,3.861-9.24,6.258-9.262,15.084L12.523,75.64l0.072,28.14
	c0.022,8.829,1.493,11.225,9.262,15.084l30.624,15.215c5.177,2.476,8.757,3.978,14.802,3.978c5.542-0.013,8.912-1.711,13.176-3.859
	L111.178,119.001z M67.278,15.363c5.029,0.012,8.199,1.609,12.216,3.633L110.234,34.2c7.651,3.758,8.368,5.904,8.348,14.253
	l-0.07,25.693l0.07,28.66c0.021,8.352-0.696,10.496-8.356,14.257l-30.736,15.204c-4.012,2.022-7.182,3.618-12.208,3.629
	c-5.587,0-8.966-1.421-13.853-3.758l-30.609-15.206c-7.064-3.512-8.044-5.11-8.063-13.156L14.683,75.64l0.072-28.154
	c0.02-8.047,1-9.646,8.063-13.156l30.564-15.183c4.919-2.355,8.304-3.784,13.812-3.784v-1.08L67.278,15.363z"/>
<g>
	<path fill="#EC008C" d="M46.144,62.006c0.934,0.002,1.772,0.364,2.513,1.08c0.741,0.716,1.11,1.57,1.108,2.562
		c-0.001,0.604-0.168,1.167-0.501,1.69c-0.33,0.522-0.965,1.193-1.903,2.016c-0.938,0.823-2.26,1.892-3.968,3.209
		c-1.708,1.316-3.94,3.071-6.695,5.264c2.745,2.151,4.969,3.889,6.67,5.214c1.701,1.326,3.019,2.401,3.952,3.23
		c0.934,0.827,1.566,1.502,1.894,2.024c0.331,0.525,0.494,1.089,0.491,1.691c-0.001,0.991-0.374,1.844-1.12,2.557
		c-0.745,0.713-1.585,1.067-2.518,1.064c-0.882-0.002-1.651-0.248-2.311-0.746L28.604,80.613c-0.934-0.827-1.398-1.764-1.395-2.81
		c0.002-1.154,0.47-2.115,1.409-2.884l15.21-12.093C44.436,62.279,45.208,62.004,46.144,62.006z"/>
	<path fill="#EC008C" d="M74.248,52.091c1.208,0.003,2.17,0.417,2.885,1.243c0.713,0.829,1.067,1.738,1.065,2.727
		c0,0.496-0.087,0.963-0.249,1.402l-15.28,39.16c-0.278,0.77-0.758,1.385-1.447,1.852c-0.691,0.464-1.419,0.698-2.189,0.695
		c-1.154-0.002-2.103-0.404-2.844-1.202c-0.74-0.799-1.111-1.723-1.108-2.767c0.001-0.551,0.084-1.019,0.251-1.402l15.28-39.159
		C71.327,52.938,72.542,52.086,74.248,52.091z"/>
	<path fill="#EC008C" d="M84.394,63.834c0.607-0.77,1.417-1.208,2.438-1.315c1.017-0.106,1.907,0.142,2.679,0.75l15.155,12.165
		c0.933,0.775,1.396,1.737,1.393,2.892c-0.003,1.212-0.473,2.145-1.407,2.803L89.439,93.221c-0.776,0.66-1.671,0.933-2.686,0.818
		c-1.019-0.111-1.828-0.555-2.429-1.326c-0.551-0.827-0.823-1.595-0.821-2.312c0.005-1.156,0.473-2.115,1.409-2.886
		c1.377-1.151,2.784-2.275,4.216-3.372c1.213-0.93,2.495-1.934,3.845-3.001c1.35-1.071,2.548-2.017,3.596-2.839
		c-1.041-0.883-2.237-1.863-3.583-2.939c-1.344-1.077-2.619-2.083-3.83-3.021c-1.426-1.104-2.826-2.236-4.196-3.394
		c-0.937-0.772-1.398-1.736-1.396-2.893C83.563,65.29,83.839,64.546,84.394,63.834z"/>
</g>
</svg>
