<?xml version="1.0" encoding="utf-8"?>
<!-- Generator: Adobe Illustrator 16.0.0, SVG Export Plug-In . SVG Version: 6.00 Build 0)  -->
<!DOCTYPE svg PUBLIC "-//W3C//DTD SVG 1.1//EN" "http://www.w3.org/Graphics/SVG/1.1/DTD/svg11.dtd">
<svg version="1.1" id="Layer_1" xmlns="http://www.w3.org/2000/svg" xmlns:xlink="http://www.w3.org/1999/xlink" x="0px" y="0px"
	 width="113.333px" height="127.334px" viewBox="0 0 113.333 127.334" enable-background="new 0 0 113.333 127.334"
	 xml:space="preserve">
<path opacity="0.3" fill="#FFFFFF" d="M99.187,18.5L71.577,4.756C66.372,2.135,62.087,1.013,57.241,1
	c-5.807,0-9.337,0.893-15.236,3.822L14.473,18.426C5.088,23.02,1.754,28.333,1.729,38.738L1.667,62.083v0.953l-0.002,0.966
	l0.064,23.343c0.025,10.406,3.359,15.719,12.734,20.309L42,121.258c5.902,2.934,9.434,3.826,15.109,3.826h0.131
	c4.846-0.014,9.129-1.135,14.325-3.75l27.617-13.746c8.895-4.408,12.51-10.141,12.486-19.779l-0.062-24.759l0.062-24.774
	C111.692,28.634,108.077,22.904,99.187,18.5z M102.421,63.035l-0.002,1.224l0.062,21.79c0.02,7.654-0.986,10.225-8.1,13.715
	l-26.008,12.867c-3.613,1.818-6.467,3.256-11.158,3.268c-5.118,0-8.149-1.271-12.532-3.369l-25.93-12.881
	c-6.578-3.268-7.823-5.297-7.842-12.771l-0.061-23.828l0.061-23.843c0.019-7.474,1.264-9.503,7.842-12.771l25.891-12.862
	c4.41-2.11,7.446-3.388,12.496-3.388h0.074c4.692,0.012,7.545,1.449,11.161,3.27l0.357,0.181l25.658,12.687
	c7.104,3.489,8.109,6.058,8.09,13.714l-0.061,21.751V63.035z"/>
<path fill="#FFFFFF" d="M94.392,26.322L68.733,13.635l-0.357-0.181c-3.615-1.82-6.469-3.258-11.161-3.27h-0.074
	c-5.05,0-8.086,1.278-12.496,3.388L18.754,26.435c-6.578,3.269-7.823,5.298-7.842,12.771l-0.061,23.843l0.061,23.828
	c0.019,7.475,1.264,9.504,7.842,12.771l25.93,12.881c4.383,2.098,7.414,3.369,12.532,3.369c4.691-0.012,7.544-1.449,11.158-3.268
	l26.008-12.867c7.113-3.49,8.119-6.061,8.1-13.715l-0.062-21.79l0.002-1.224v-1.248l0.061-21.751
	C102.501,32.38,101.495,29.811,94.392,26.322z M100.651,86.051c0.02,7.072-0.588,8.889-7.076,12.072l-26.023,12.873
	c-3.398,1.713-6.08,3.064-10.336,3.074c-4.73,0-7.593-1.205-11.73-3.184L19.569,98.012c-5.981-2.973-6.811-4.326-6.828-11.139
	L12.68,63.049l0.061-23.838c0.018-6.813,0.847-8.167,6.828-11.139l25.878-12.855c4.165-1.994,7.031-3.204,11.694-3.204v-0.915
	l0.072,0.915c4.258,0.01,6.94,1.362,10.344,3.076l26.025,12.873c6.48,3.182,7.088,4.999,7.068,12.069l-0.059,21.754L100.651,86.051z
	"/>
<path fill="#FFFFFF" d="M40.348,57.727c0.795-0.697,1.332-1.265,1.611-1.707c0.282-0.443,0.424-0.919,0.424-1.431
	c0.002-0.839-0.311-1.562-0.938-2.169c-0.629-0.606-1.338-0.912-2.129-0.914c-0.793-0.002-1.445,0.231-1.96,0.694L24.478,62.439
	c-0.794,0.651-1.19,1.466-1.192,2.442c-0.003,0.886,0.391,1.679,1.182,2.378l12.828,10.373c0.559,0.42,1.211,0.629,1.957,0.631
	c0.79,0.002,1.502-0.297,2.132-0.9c0.632-0.604,0.947-1.326,0.948-2.166c0.002-0.51-0.136-0.986-0.416-1.432
	c-0.277-0.443-0.813-1.014-1.604-1.715s-1.906-1.611-3.346-2.734c-1.441-1.121-3.324-2.594-5.648-4.415
	c2.334-1.857,4.224-3.343,5.669-4.457C38.434,59.329,39.554,58.424,40.348,57.727z"/>
<path fill="#FFFFFF" d="M63.112,43.11c-1.443-0.004-2.473,0.718-3.078,2.158L47.096,78.426c-0.141,0.324-0.211,0.721-0.212,1.188
	c-0.003,0.883,0.312,1.666,0.938,2.342c0.628,0.676,1.43,1.016,2.408,1.018c0.652,0.002,1.269-0.195,1.854-0.588
	c0.583-0.396,0.989-0.918,1.225-1.568l12.938-33.157c0.137-0.372,0.211-0.768,0.211-1.188c0.002-0.837-0.299-1.607-0.902-2.309
	C64.95,43.463,64.136,43.113,63.112,43.11z"/>
<path fill="#FFFFFF" d="M76.036,52.575c-0.654-0.515-1.406-0.725-2.268-0.635c-0.865,0.091-1.551,0.462-2.064,1.114
	c-0.471,0.604-0.703,1.233-0.703,1.883c-0.002,0.979,0.389,1.795,1.182,2.449c1.16,0.98,2.346,1.938,3.553,2.873
	c1.025,0.795,2.105,1.646,3.244,2.558c1.139,0.91,2.15,1.742,3.033,2.488c-0.887,0.696-1.902,1.496-3.045,2.404
	c-1.143,0.904-2.229,1.754-3.256,2.541c-1.211,0.928-2.402,1.881-3.568,2.855c-0.793,0.652-1.189,1.465-1.193,2.443
	c-0.002,0.605,0.229,1.256,0.695,1.957c0.508,0.652,1.193,1.027,2.057,1.123c0.859,0.096,1.615-0.135,2.273-0.693l12.881-10.238
	c0.791-0.559,1.189-1.348,1.189-2.375c0.004-0.977-0.389-1.792-1.178-2.448L76.036,52.575z"/>
</svg>
